# xmcd
#
# Track frame offsets: 
#        150
#        13245
#        33340
#        49030
#        63187
#        78457
#        98335
#        104107
#        120622
#        124142
#        136207
#        152862
#        168445
#        184385
#
# Disc length: 2623 seconds
#
# Revision: 2
# Processed by: cddbd v1.5.2PL0 Copyright (c) Steve Scherf et al.
# Submitted via: ExactAudioCopyFreeDBPlugin 1.0
#
DISCID=ba0a3d0e
DTITLE=Cypress Hill - Black Sunday [Repress]
DYEAR=1993
DGENRE=Hip-Hop
TTITLE0=I Wanna Get High
TTITLE1=I Ain't Goin Out Like That
TTITLE2=Insane In The Brain
TTITLE3=When The Sh-- Goes Down
TTITLE4=Lick A Shot
TTITLE5=Cock The Hammer
TTITLE6=Lock Down
TTITLE7=3 Lil' Putos
TTITLE8=Legalize It
TTITLE9=Hits From The Bong
TTITLE10=What Go Around Come Around, Kid
TTITLE11=A To The K
TTITLE12=Hand On The Glock
TTITLE13=Break 'Em Off Some
EXTD=YEAR: 1993
EXTT0=
EXTT1=
EXTT2=
EXTT3=
EXTT4=
EXTT5=
EXTT6=
EXTT7=
EXTT8=
EXTT9=
EXTT10=
EXTT11=
EXTT12=
EXTT13=
PLAYORDER=
